PathFileType	4	(X/Y/Z)	/Users/itak/Documents/Research/Walk-IL/dataset/trc/00383_00012.trc
DataRate	CameraRate	NumFrames	NumMarkers	Units	OrigDataRate	OrigDataStartFrame	OrigNumFrames
100.000000	100.000000	4	53	mm	100.000000	348	558
Frame#	Time	RPSI			LPSI			L3			STRN			T10			C7			CLAV			RBAK			LBAK			LSHO			LUPA			LAEL			LAOL			LWTS			LWPS			LFRA			LIFD			LHPS			LHTS			RSHO			RUPA			RAEL			RAOL			RWTS			RWPS			RFRA			RIFD			RHTS			RHPS			RBHD			LFHD			RFHD			LBHD			LHIP			RHIP			RASI			LASI			LKNE			LTHI			LANK			LTIP			LTOE			LMT1			LMT5			LHEE			RKNE			RTHI			RANK			RTIP			RTOE			RMT1			RMT5			RHEE			
		X1	Y1	Z1	X2	Y2	Z2	X3	Y3	Z3	X4	Y4	Z4	X5	Y5	Z5	X6	Y6	Z6	X7	Y7	Z7	X8	Y8	Z8	X9	Y9	Z9	X10	Y10	Z10	X11	Y11	Z11	X12	Y12	Z12	X13	Y13	Z13	X14	Y14	Z14	X15	Y15	Z15	X16	Y16	Z16	X17	Y17	Z17	X18	Y18	Z18	X19	Y19	Z19	X20	Y20	Z20	X21	Y21	Z21	X22	Y22	Z22	X23	Y23	Z23	X24	Y24	Z24	X25	Y25	Z25	X26	Y26	Z26	X27	Y27	Z27	X28	Y28	Z28	X29	Y29	Z29	X30	Y30	Z30	X31	Y31	Z31	X32	Y32	Z32	X33	Y33	Z33	X34	Y34	Z34	X35	Y35	Z35	X36	Y36	Z36	X37	Y37	Z37	X38	Y38	Z38	X39	Y39	Z39	X40	Y40	Z40	X41	Y41	Z41	X42	Y42	Z42	X43	Y43	Z43	X44	Y44	Z44	X45	Y45	Z45	X46	Y46	Z46	X47	Y47	Z47	X48	Y48	Z48	X49	Y49	Z49	X50	Y50	Z50	X51	Y51	Z51	X52	Y52	Z52	X53	Y53	Z53	

349	3.48	54.85536193847656	934.1139526367188	100.8986282348633	62.29833602905273	915.3970336914062	-31.26914024353027	53.64083099365234	1005.191955566406	46.90279006958008	287.4842224121094	1165.779296875	65.36056518554688	37.94987106323242	1108.876220703125	51.76083374023438	72.69049072265625	1356.681030273438	51.96749114990234	228.6617736816406	1282.2724609375	59.97023010253906	30.2480411529541	1210.833740234375	117.8243026733398	54.52228546142578	1318.792236328125	-46.27927398681641	137.3360900878906	1331.87158203125	-102.0095367431641	75.31734466552734	1223.2509765625	-154.1466674804688	23.16240692138672	1034.523803710938	-161.3842926025391	-10.82777309417725	1030.119140625	-83.23140716552734	33.17659759521484	799.2850341796875	-115.9772338867188	-26.74124336242676	808.8189697265625	-172.0762023925781	-1.530755758285522	932.4435424804688	-167.0208435058594	-42.87667465209961	637.7559814453125	-100.1793060302734	-53.44733428955078	726.780029296875	-157.4832916259766	-2.978716611862183	702.3637084960938	-127.3478622436523	124.3654861450195	1341.21630859375	210.3771209716797	111.5248336791992	1275.291015625	271.5040283203125	154.0888519287109	1019.11865234375	329.2085266113281	142.1728973388672	994.9151611328125	236.8216705322266	387.9704895019531	966.9666748046875	314.5321655273438	367.2452392578125	926.6228637695312	373.9041748046875	207.8999328613281	985.1904907226562	347.8257141113281	526.198974609375	865.1080932617188	329.1452331542969	481.6357116699219	921.4037475585938	343.709228515625	440.574462890625	877.659423828125	380.2746276855469	102.0286865234375	1544.107788085938	127.7478332519531	240.0916290283203	1551.65087890625	-15.3902645111084	231.5833435058594	1563.701049804688	106.645751953125	94.68293762207031	1524.71484375	-33.56290435791016	167.6722717285156	911.6409912109375	-130.6533508300781	121.5729598999023	915.7726440429688	226.586669921875	261.1014099121094	920.5763549804688	195.9401245117188	273.1536560058594	919.1626586914062	-68.67561340332031	400.1730041503906	470.4903259277344	-74.71377563476562	328.4774169921875	590.1685180664062	-98.5689697265625	496.7230834960938	29.92486190795898	-33.59611511230469	451.1119995117188	239.4152679443359	-66.94831085205078	678.6824951171875	105.676872253418	58.90607452392578	602.8298950195312	80.13954162597656	77.97391510009766	618.9483642578125	61.31462478637695	-24.75998115539551	452.1281127929688	23.55562782287598	16.61166191101074	57.61804580688477	442.4033508300781	181.6634063720703	160.4187316894531	686.7855224609375	227.6696929931641	-150.8697204589844	70.79017639160156	124.714225769043	19.56670570373535	318.8795471191406	156.570556640625	13.01100921630859	33.37290191650391	41.83620452880859	-63.80742645263672	46.56545639038086	21.68372535705566	-70.98573303222656	45.01541519165039	121.0861587524414	-229.8516845703125	85.97478485107422	77.82375335693359	
350	3.49	68.9088134765625	933.493408203125	100.4465255737305	76.37581634521484	915.3402099609375	-31.86212921142578	67.99182891845703	1003.886413574219	46.51631927490234	300.3510437011719	1165.452270507812	65.16233825683594	51.15509414672852	1107.48876953125	51.23996353149414	84.70807647705078	1355.68994140625	51.37973785400391	241.1531677246094	1281.775390625	59.75173950195312	42.94206619262695	1209.592895507812	117.1168518066406	66.96580505371094	1317.664916992188	-46.98405838012695	149.9397430419922	1331.152221679688	-102.4417877197266	88.76547241210938	1222.091552734375	-154.8971710205078	37.95755004882812	1033.022705078125	-162.8070831298828	3.682203054428101	1028.192749023438	-84.81888580322266	49.71654510498047	797.8514404296875	-117.6534652709961	-9.783003807067871	807.0452270507812	-174.3002319335938	14.11512565612793	930.5919189453125	-168.7285308837891	-25.89298248291016	635.7344970703125	-102.9037780761719	-35.76963806152344	724.772216796875	-160.4887390136719	14.36758613586426	700.5184326171875	-129.6828460693359	136.1786499023438	1340.270385742188	209.9030303955078	123.1297454833984	1274.260131835938	270.8682250976562	164.5371246337891	1017.786926269531	328.0659484863281	153.0756683349609	993.9837646484375	235.5126037597656	398.1944274902344	963.4832153320312	314.1492309570312	376.8287658691406	923.298095703125	373.3621826171875	217.9739837646484	983.330810546875	346.7560729980469	535.0691528320312	859.8580932617188	329.0174865722656	491.1853332519531	916.6591186523438	343.5167236328125	449.8134460449219	873.4456787109375	379.9871520996094	113.3404998779297	1543.387817382812	127.3822937011719	251.6756286621094	1551.234619140625	-15.50878429412842	242.9203491210938	1563.219970703125	106.5193634033203	106.3627624511719	1524.034057617188	-33.97378540039062	181.6781463623047	912.093017578125	-131.5077667236328	135.7293090820312	914.5609130859375	226.0866241455078	275.0678405761719	919.4257202148438	195.424560546875	287.0664672851562	919.331787109375	-69.25165557861328	413.8553161621094	470.4241027832031	-72.83311462402344	342.5267028808594	589.9841918945312	-97.69009399414062	499.1344604492188	29.39115142822266	-32.54243469238281	460.303466796875	238.1416015625	-64.73883056640625	683.7210693359375	96.57875061035156	61.30400848388672	606.8407592773438	73.47266387939453	80.03154754638672	622.3321533203125	55.70333099365234	-22.82368469238281	454.1889953613281	24.20871353149414	17.5641975402832	69.12260437011719	442.0294494628906	180.7986145019531	173.4578399658203	685.5365600585938	226.5896301269531	-148.4983673095703	74.28704071044922	125.7241744995117	28.22297477722168	319.1390380859375	156.5485229492188	12.98547458648682	33.34275817871094	41.85640716552734	-62.66315841674805	48.06940460205078	22.17789459228516	-69.65531158447266	45.11254501342773	121.7192230224609	-226.8579559326172	92.59318542480469	78.89111328125	
351	3.5	83.27695465087891	933.2211303710938	100.1302490234375	90.73258972167969	915.75	-32.37420654296875	82.77432250976562	1002.83544921875	46.17876815795898	313.3259887695312	1165.5751953125	64.91380310058594	64.4776611328125	1106.376586914062	50.63198089599609	96.73494720458984	1355.016235351562	50.74235534667969	253.7220001220703	1281.720336914062	59.49492263793945	55.76417541503906	1208.624145507812	116.3463134765625	79.44974517822266	1316.862426757812	-47.74049377441406	162.5918273925781	1330.844970703125	-102.9073638916016	102.3464508056641	1221.3271484375	-155.7240905761719	53.06241226196289	1031.871459960938	-164.3489074707031	18.51288986206055	1026.5625	-86.52552795410156	66.98638153076172	796.7999877929688	-119.6041107177734	7.769733905792236	805.5433959960938	-176.6581420898438	30.20439529418945	929.049560546875	-170.5611724853516	-8.027021408081055	633.9520263671875	-105.770393371582	-17.23694229125977	722.9661254882812	-163.5892944335938	32.58130264282227	698.890869140625	-132.1467437744141	147.9668121337891	1339.659545898438	209.3771057128906	134.6936492919922	1273.546997070312	270.1425476074219	174.8075103759766	1016.765014648438	326.8429260253906	163.8429260253906	993.3828125	234.1109008789062	408.1223754882812	959.6258544921875	313.7520141601562	385.9465637207031	919.6981811523438	372.7981262207031	227.8976593017578	981.633544921875	345.654541015625	543.1945190429688	853.7044677734375	328.8642578125	500.2269592285156	911.1793212890625	343.3006286621094	458.419189453125	868.6765747070312	379.6826477050781	124.6320495605469	1543.073608398438	126.999626159668	263.261962890625	1551.201782226562	-15.5996150970459	254.2419891357422	1563.100708007812	106.4146194458008	118.0459594726562	1523.783203125	-34.38739013671875	195.8793334960938	912.9889526367188	-132.3401641845703	150.1467437744141	913.6618041992188	225.6943817138672	289.3599243164062	918.6302490234375	194.8686218261719	301.2135314941406	919.932861328125	-69.82173156738281	427.24853515625	470.5912170410156	-71.12486267089844	356.4373474121094	590.099609375	-96.90987396240234	500.8742065429688	29.48027801513672	-31.60362243652344	469.1801452636719	237.1865081787109	-62.66220092773438	688.4955444335938	87.19412994384766	63.27734756469727	610.5087890625	66.89498901367188	81.75138092041016	625.0484619140625	50.34345626831055	-21.28147315979004	455.7947692871094	25.47040939331055	18.52269554138184	81.49164581298828	441.8156127929688	180.0147857666016	187.0470123291016	684.5128784179688	225.4827728271484	-145.6886749267578	78.19704437255859	126.7870941162109	37.56940841674805	319.6684875488281	156.7298583984375	12.87675380706787	33.32077026367188	41.90456771850586	-61.27511215209961	49.68019485473633	22.7115306854248	-68.15878295898438	45.1591796875	122.360221862793	-223.0382995605469	99.94933319091797	79.96892547607422	
352	3.51	97.87467193603516	933.2684936523438	99.94110107421875	105.28173828125	916.6207885742188	-32.80249404907227	97.89048767089844	1002.107543945312	45.89707183837891	326.3837280273438	1166.146484375	64.6417236328125	77.89112854003906	1105.590209960938	49.9844970703125	108.7676773071289	1354.67578125	50.0621223449707	266.346923828125	1282.10546875	59.21306991577148	68.69972229003906	1207.957763671875	115.5194091796875	91.96520233154297	1316.400634765625	-48.54055023193359	175.2842864990234	1330.950439453125	-103.3982925415039	116.0500946044922	1220.952392578125	-156.6175994873047	68.48259735107422	1031.077392578125	-166.0020751953125	33.67067718505859	1025.220703125	-88.344970703125	84.95919799804688	796.144775390625	-121.8312149047852	25.88154411315918	804.3359375	-179.1434783935547	46.7360954284668	927.8677978515625	-172.5186004638672	10.73525333404541	632.44970703125	-108.7835006713867	2.09157657623291	721.3958740234375	-166.7576446533203	51.65092086791992	697.5270385742188	-134.7473449707031	159.7296295166016	1339.3984375	208.8115844726562	146.2173004150391	1273.16552734375	269.3351745605469	184.9149322509766	1016.074584960938	325.5392456054688	174.48828125	993.1307373046875	232.6084899902344	417.7286987304688	955.4146118164062	313.3351745605469	394.5825500488281	915.8513793945312	372.2044067382812	237.6976470947266	980.1204223632812	344.5280456542969	550.5548706054688	846.7323608398438	328.6938171386719	508.7297973632812	905.0274658203125	343.06396484375	466.37744140625	863.4076538085938	379.3595581054688	135.9027404785156	1543.165771484375	126.6008453369141	274.837646484375	1551.556762695312	-15.66178035736084	265.5393981933594	1563.350219726562	106.3306198120117	129.7192077636719	1523.960571289062	-34.80160140991211	210.2349853515625	914.3534545898438	-133.1085968017578	164.6628570556641	913.0576782226562	225.4184722900391	303.8733520507812	918.2150268554688	194.3017883300781	315.5341491699219	920.9884033203125	-70.34096527099609	440.3296813964844	471.0141296386719	-69.65345001220703	370.1495971679688	590.5634155273438	-96.25784301757812	502.267333984375	30.07056617736816	-30.77920532226562	477.831787109375	236.6002502441406	-60.82097244262695	692.9903564453125	78.09719085693359	64.91051483154297	613.8922729492188	60.80667495727539	83.16109466552734	627.3208618164062	45.58498764038086	-20.09561157226562	457.2302856445312	27.12625694274902	19.43469619750977	94.83659362792969	441.7241516113281	179.3746490478516	201.1754455566406	683.7190551757812	224.3618621826172	-142.3603057861328	82.50243377685547	127.8972244262695	47.7374153137207	320.4503173828125	157.1911468505859	12.67067527770996	33.30561065673828	41.99049377441406	-59.60380935668945	51.35526275634766	23.32724952697754	-66.50334930419922	45.14801406860352	123.005729675293	-218.2235717773438	108.018424987793	81.03679656982422	
